<svg t="1728383089672" class="icon" viewBox="0 0 1024 1024" version="1.1" xmlns="http://www.w3.org/2000/svg" p-id="4314" width="200" height="200"><path d="M1024 512c0 281.6-230.4 512-512 512S0 793.6 0 512 230.4 0 512 0s512 230.4 512 512z" fill="#D82460" p-id="4315"></path><path d="M512 0C230.4 0 0 230.4 0 512s230.4 512 512 512 512-230.4 512-512S793.6 0 512 0z m0 998.4C243.2 998.4 25.6 780.8 25.6 512S243.2 25.6 512 25.6s486.4 217.6 486.4 486.4-217.6 486.4-486.4 486.4z" fill="#ffffff" p-id="4316"></path><path d="M757.76 494.08c-5.12 0-7.68 0-12.8-2.56v-2.56-23.04c0-20.48-10.24-33.28-30.72-38.4-7.68-2.56-12.8-2.56-20.48-2.56-2.56 0-2.56 0-2.56-2.56v-5.12c0-2.56 0-2.56-2.56-2.56h-30.72c-2.56 0-2.56 0-2.56 2.56v10.24h-25.6V460.8c0 2.56 0 5.12 5.12 5.12h20.48v30.72h-33.28c-2.56 0-2.56 0-2.56 2.56v30.72c0 2.56 0 5.12 2.56 2.56h33.28V606.72c0 5.12 0 5.12 5.12 5.12h28.16c2.56 0 5.12 0 5.12-5.12V537.6v-5.12H742.4c7.68 0 10.24 5.12 12.8 12.8V581.12h-33.28c-2.56 0-2.56 0-2.56 2.56 2.56 12.8 10.24 23.04 23.04 25.6 7.68 2.56 17.92 2.56 25.6 0 15.36-2.56 23.04-15.36 25.6-28.16v-53.76c-7.68-17.92-17.92-30.72-35.84-33.28z m-66.56-2.56V460.8h12.8c2.56 0 5.12 2.56 5.12 5.12v25.6H691.2zM614.4 573.44H583.68v-110.08h20.48c2.56 0 5.12 0 2.56-2.56v-28.16c0-2.56 0-5.12-5.12-5.12h-81.92V460.8c0 2.56 0 2.56 2.56 2.56h17.92c2.56 0 5.12 0 5.12 5.12v107.52H512c-2.56 0-5.12 0-5.12 2.56-2.56 5.12-5.12 10.24-7.68 17.92l-7.68 15.36H616.96c2.56 0 2.56 0 2.56-2.56v-30.72c-2.56-5.12-2.56-5.12-5.12-5.12zM340.48 414.72h-28.16c-2.56 0-5.12 0-5.12 5.12v161.28h-23.04v2.56c0 15.36 10.24 28.16 25.6 28.16 17.92 2.56 30.72-5.12 33.28-23.04 0-2.56 2.56-5.12 2.56-10.24v-161.28c-2.56-2.56-2.56-2.56-5.12-2.56zM432.64 499.2c2.56 0 5.12 0 10.24 2.56h15.36c-2.56 2.56-2.56 7.68-5.12 10.24-5.12 7.68-7.68 15.36-12.8 25.6 0 2.56-2.56 5.12-2.56 7.68-5.12 12.8 0 20.48 12.8 20.48h33.28s2.56 0 2.56-2.56c5.12-7.68 7.68-15.36 12.8-25.6 0 0 0-2.56 2.56-5.12H486.4c-7.68 0-7.68-2.56-5.12-7.68 10.24-17.92 17.92-35.84 28.16-53.76 0 0 0-2.56 2.56-5.12h-30.72c-5.12 0-7.68 0-10.24 5.12-2.56-2.56-5.12-2.56-2.56-7.68 7.68-15.36 15.36-28.16 23.04-43.52 0 0 0-2.56 2.56-5.12h-35.84l-2.56 2.56c-7.68 15.36-15.36 30.72-23.04 48.64-2.56 5.12-5.12 12.8-7.68 17.92-2.56 5.12 2.56 12.8 7.68 15.36zM248.32 463.36c-2.56 0-5.12 0-5.12 5.12-2.56 20.48-2.56 40.96-5.12 61.44 0 7.68 0 15.36-5.12 23.04v2.56c5.12 12.8 12.8 23.04 17.92 35.84 0 0 0 2.56 2.56 2.56 0-2.56 2.56-2.56 2.56-5.12 10.24-15.36 15.36-30.72 17.92-48.64 2.56-15.36 2.56-33.28 5.12-48.64 0-10.24 2.56-17.92 2.56-28.16H248.32zM414.72 550.4c0-5.12-2.56-10.24-2.56-12.8-2.56-23.04-2.56-46.08-5.12-69.12 0-2.56 0-2.56-2.56-2.56h-33.28v2.56c2.56 20.48 2.56 43.52 5.12 64 2.56 17.92 5.12 38.4 15.36 53.76 2.56 2.56 2.56 5.12 5.12 10.24 7.68-12.8 12.8-25.6 20.48-38.4-2.56-5.12-2.56-7.68-2.56-7.68zM483.84 573.44h-30.72c-5.12 0-10.24 0-17.92-2.56-2.56 0-2.56 0-5.12 2.56-5.12 10.24-10.24 17.92-15.36 28.16 0 2.56-2.56 5.12-5.12 7.68 5.12 0 10.24 2.56 12.8 2.56H460.8c2.56 0 5.12 0 5.12-2.56l15.36-30.72v-2.56c5.12-2.56 5.12-2.56 2.56-2.56z" fill="#ffffff" p-id="4317"></path><path d="M770.56 424.96c-10.24 0-17.92 7.68-17.92 17.92v15.36c0 2.56 0 2.56 2.56 2.56h15.36c10.24 0 17.92-7.68 17.92-17.92 0-7.68-10.24-17.92-17.92-17.92z" fill="#ffffff" p-id="4318"></path></svg>